<svg width="482" height="465" viewBox="0 0 482 465" fill="none" xmlns="http://www.w3.org/2000/svg">
<g opacity="0.2" filter="url(#filter0_i_411_101)">
<path d="M105.449 79.6811C97.4956 11.3631 181.611 -27.2194 228.202 23.3762L247.841 44.7038C268.677 67.3308 301.713 73.968 329.671 61.1439L356.024 49.0563C418.541 20.3809 481.228 88.4568 447.506 148.402L433.291 173.671C418.21 200.479 422.107 233.949 442.943 256.576L462.582 277.904C509.173 328.5 463.8 409.155 396.368 395.608L367.943 389.897C337.787 383.839 307.159 397.887 292.078 424.696L277.863 449.964C244.141 509.91 153.412 491.682 145.459 423.364L142.106 394.566C138.549 364.013 115.724 339.225 85.5674 333.167L57.1427 327.456C-10.2892 313.909 -20.9903 221.987 41.5263 193.312L67.879 181.224C95.8372 168.4 112.358 139.032 108.801 108.479L105.449 79.6811Z" fill="white"/>
</g>
<defs>
<filter id="filter0_i_411_101" x="0.106201" y="0.250488" width="485.52" height="489.963" filterUnits="userSpaceOnUse" color-interpolation-filters="sRGB">
<feFlood flood-opacity="0" result="BackgroundImageFix"/>
<feBlend mode="normal" in="SourceGraphic" in2="BackgroundImageFix" result="shape"/>
<feColorMatrix in="SourceAlpha" type="matrix" values="0 0 0 0 0 0 0 0 0 0 0 0 0 0 0 0 0 0 127 0" result="hardAlpha"/>
<feOffset dx="4" dy="4"/>
<feGaussianBlur stdDeviation="11"/>
<feComposite in2="hardAlpha" operator="arithmetic" k2="-1" k3="1"/>
<feColorMatrix type="matrix" values="0 0 0 0 0 0 0 0 0 0 0 0 0 0 0 0 0 0 0.25 0"/>
<feBlend mode="normal" in2="shape" result="effect1_innerShadow_411_101"/>
</filter>
</defs>
</svg>
