<svg width="174" height="92" viewBox="0 0 174 92" fill="none" xmlns="http://www.w3.org/2000/svg">
<g filter="url(#filter0_i_410_2)">
<path d="M33.887 23.537C33.9163 15.8862 43.7187 12.7427 48.1921 18.9495C50.1926 21.7253 53.7529 22.8972 57.0111 21.8524C64.2964 19.516 70.3152 27.8673 65.7945 34.0397C63.7728 36.8 63.7584 40.5483 65.759 43.3241C70.2323 49.5309 64.1497 57.8358 56.8824 55.4437C53.6324 54.3739 50.0632 55.5185 48.0414 58.2789C43.5207 64.4513 33.7427 61.2328 33.772 53.582C33.7851 50.1605 31.5935 47.1196 28.3435 46.0499C21.0762 43.6578 21.1157 33.3637 28.401 31.0274C31.6592 29.9825 33.8739 26.9585 33.887 23.537Z" fill="#665BE3"/>
</g>
<mask id="mask0_410_2" style="mask-type:alpha" maskUnits="userSpaceOnUse" x="33" y="25" width="26" height="26">
<path fill-rule="evenodd" clip-rule="evenodd" d="M51.8793 25.1251L36.7365 35.5265L37.288 35.7316L33.916 44.7006L37.9906 50.0935L51.6795 48.8467L58.277 43.5488L56.3275 35.2621L51.7875 25.47L51.8793 25.1251Z" fill="black"/>
</mask>
<g mask="url(#mask0_410_2)">
<ellipse cx="3.06159" cy="3.09758" rx="3.06159" ry="3.09758" transform="matrix(0.976133 0.00387929 -0.00447972 1.02276 37.7969 29.4551)" fill="white"/>
<rect width="6.12317" height="10.5622" transform="matrix(0.976133 0.00387929 -0.00447972 1.02276 37.7659 36.5186)" fill="white"/>
<rect width="6.12327" height="21.7342" transform="matrix(0.976133 0.00387929 -0.00447972 1.02276 45.655 25.124)" fill="white"/>
<path d="M45.5854 41.0166L56.1955 41.0588C56.1801 44.5582 53.4602 47.3843 50.1203 47.371L45.5577 47.3529L45.5854 41.0166Z" fill="white"/>
<path d="M46.2273 30.002L56.8373 30.0441C56.822 33.5435 54.1021 36.3696 50.7622 36.3563L46.1995 36.3382L46.2273 30.002Z" fill="white"/>
</g>
<path fill-rule="evenodd" clip-rule="evenodd" d="M84.5452 34.5056C85.6579 35.9181 86.261 37.7041 86.2469 39.5451L86.2165 39.5449C86.2138 39.7198 86.2027 39.8722 86.1832 39.9903L76.2707 39.9144C76.0683 41.2376 77.1756 42.0443 77.7546 42.2823L85.7025 42.3431C85.6856 42.3783 85.6626 42.4436 85.6309 42.5333C85.5863 42.6595 85.5247 42.834 85.4389 43.0417C85.33 43.3052 84.9705 43.8395 84.6764 44.2532L84.6933 44.2672C83.624 45.719 82.1036 46.7216 80.4028 47.0963C78.7021 47.471 76.9317 47.1935 75.4071 46.3131C73.8825 45.4328 72.7028 44.0069 72.0782 42.2895C71.4537 40.5722 71.4249 38.675 71.997 36.9361C72.5691 35.1972 73.7049 33.7296 75.202 32.7949C76.699 31.8602 78.4601 31.5191 80.1713 31.8324C81.8824 32.1457 83.4325 33.093 84.5452 34.5056Z" fill="#665BE3"/>
<path d="M86.2469 39.5451L86.2449 39.7951L86.4949 39.797L86.4969 39.547L86.2469 39.5451ZM84.5452 34.5056L84.7416 34.3509L84.7416 34.3509L84.5452 34.5056ZM86.2165 39.5449L86.2184 39.2949L85.9703 39.293L85.9665 39.5411L86.2165 39.5449ZM86.1832 39.9903L86.1813 40.2403L86.395 40.242L86.4298 40.031L86.1832 39.9903ZM76.2707 39.9144L76.2726 39.6644L76.0563 39.6628L76.0236 39.8766L76.2707 39.9144ZM77.7546 42.2823L77.6595 42.5135L77.7043 42.5319L77.7526 42.5323L77.7546 42.2823ZM85.7025 42.3431L85.9278 42.4515L86.0988 42.0962L85.7044 42.0931L85.7025 42.3431ZM85.6309 42.5333L85.8666 42.6166L85.8666 42.6166L85.6309 42.5333ZM85.4389 43.0417L85.6699 43.1372L85.6699 43.1372L85.4389 43.0417ZM84.6764 44.2532L84.4726 44.1083L84.338 44.2977L84.517 44.4458L84.6764 44.2532ZM84.6933 44.2672L84.8946 44.4154L85.0347 44.2252L84.8527 44.0745L84.6933 44.2672ZM80.4028 47.0963L80.3491 46.8522L80.4028 47.0963ZM75.4071 46.3131L75.2821 46.5296L75.4071 46.3131ZM72.0782 42.2895L72.3132 42.2041L72.3132 42.2041L72.0782 42.2895ZM71.997 36.9361L71.7595 36.858L71.7595 36.858L71.997 36.9361ZM75.202 32.7949L75.0696 32.5828L75.202 32.7949ZM86.4969 39.547C86.5114 37.6507 85.8903 35.8091 84.7416 34.3509L84.3488 34.6603C85.4255 36.0271 86.0105 37.7575 85.9969 39.5432L86.4969 39.547ZM86.2146 39.7949L86.2449 39.7951L86.2488 39.2951L86.2184 39.2949L86.2146 39.7949ZM85.9665 39.5411C85.9639 39.7092 85.9532 39.8482 85.9365 39.9496L86.4298 40.031C86.4521 39.8962 86.4637 39.7303 86.4664 39.5487L85.9665 39.5411ZM86.1851 39.7403L76.2726 39.6644L76.2688 40.1644L86.1813 40.2403L86.1851 39.7403ZM76.0236 39.8766C75.9095 40.6224 76.1674 41.224 76.526 41.6634C76.8801 42.0972 77.3378 42.3813 77.6595 42.5135L77.8496 42.051C77.5924 41.9453 77.207 41.707 76.9133 41.3472C76.6241 40.9929 76.4295 40.5296 76.5178 39.9522L76.0236 39.8766ZM77.7526 42.5323L85.7006 42.5931L85.7044 42.0931L77.7565 42.0323L77.7526 42.5323ZM85.4772 42.2348C85.4528 42.2857 85.424 42.3684 85.3951 42.4501L85.8666 42.6166C85.9011 42.5188 85.9184 42.471 85.9278 42.4515L85.4772 42.2348ZM85.3951 42.4501C85.3507 42.5759 85.2909 42.7451 85.2078 42.9462L85.6699 43.1372C85.7584 42.9229 85.8219 42.7431 85.8666 42.6166L85.3951 42.4501ZM85.2078 42.9462C85.163 43.0548 85.0574 43.2371 84.9168 43.4559C84.7794 43.6697 84.6184 43.9033 84.4726 44.1083L84.8801 44.398C85.0285 44.1894 85.1943 43.9489 85.3374 43.7263C85.4773 43.5086 85.6059 43.2921 85.6699 43.1372L85.2078 42.9462ZM84.8527 44.0745L84.8357 44.0605L84.517 44.4458L84.5339 44.4598L84.8527 44.0745ZM80.4566 47.3405C82.2188 46.9522 83.7908 45.9141 84.8946 44.4154L84.492 44.1189C83.4573 45.5238 81.9884 46.491 80.3491 46.8522L80.4566 47.3405ZM75.2821 46.5296C76.8601 47.4408 78.6942 47.7287 80.4566 47.3405L80.3491 46.8522C78.71 47.2133 77.0033 46.9461 75.5321 46.0966L75.2821 46.5296ZM71.8433 42.375C72.4871 44.1453 73.7045 45.6187 75.2821 46.5296L75.5321 46.0966C74.0605 45.2469 72.9185 43.8685 72.3132 42.2041L71.8433 42.375ZM71.7595 36.858C71.17 38.65 71.1996 40.6048 71.8433 42.375L72.3132 42.2041C71.7079 40.5395 71.6799 38.6999 72.2345 37.0142L71.7595 36.858ZM75.0696 32.5828C73.5209 33.5498 72.3492 35.0658 71.7595 36.858L72.2345 37.0142C72.7891 35.3286 73.8889 33.9095 75.3344 33.0069L75.0696 32.5828ZM80.2163 31.5865C78.4429 31.2617 76.6187 31.6156 75.0696 32.5828L75.3344 33.0069C76.7794 32.1047 78.4774 31.7764 80.1262 32.0783L80.2163 31.5865ZM84.7416 34.3509C83.5926 32.8923 81.9895 31.9111 80.2163 31.5865L80.1262 32.0783C81.7753 32.3802 83.2724 33.2938 84.3488 34.6603L84.7416 34.3509Z" fill="#665BE3"/>
<path d="M91.5361 34.1671L91.4469 45.8031L88.3107 45.7791L88.3998 34.1431L91.5361 34.1671ZM97.2254 46.0065C96.2936 45.9993 95.492 45.8152 94.8205 45.4539C94.1528 45.089 93.6397 44.5699 93.2812 43.8966C92.9265 43.2197 92.7528 42.4115 92.76 41.4721C92.7669 40.5706 92.9547 39.7842 93.3235 39.1127C93.6923 38.4413 94.2096 37.9206 94.8753 37.5507C95.541 37.1808 96.3246 36.9993 97.2261 37.0062C97.8852 37.0113 98.481 37.1181 99.0135 37.3267C99.546 37.5354 100 37.8362 100.376 38.2292C100.752 38.6185 101.04 39.0904 101.24 39.645C101.44 40.1996 101.538 40.8234 101.533 41.5166L101.527 42.2438L93.7318 42.1841L93.7451 40.4569L98.654 40.4945C98.6521 40.2445 98.5894 40.0243 98.4659 39.834C98.3462 39.6399 98.1825 39.489 97.975 39.3813C97.7713 39.2699 97.5388 39.2132 97.2774 39.2112C97.0237 39.2093 96.7903 39.2624 96.5773 39.3706C96.3644 39.4751 96.1928 39.6215 96.0626 39.8099C95.9361 39.9983 95.8682 40.2194 95.8586 40.4731L95.8444 42.3367C95.8422 42.617 95.899 42.8674 96.0148 43.088C96.1305 43.3086 96.2977 43.4822 96.5165 43.6089C96.7352 43.7356 96.9999 43.8001 97.3105 43.8025C97.5264 43.8042 97.7236 43.7754 97.902 43.7161C98.0843 43.6569 98.2403 43.571 98.3699 43.4583C98.4996 43.3419 98.5954 43.2025 98.6572 43.0401L101.521 43.062C101.418 43.6673 101.181 44.192 100.81 44.6361C100.439 45.0765 99.9497 45.4175 99.3417 45.659C98.7376 45.8968 98.0322 46.0126 97.2254 46.0065ZM106.982 46.0812C106.035 46.0739 105.226 45.8802 104.555 45.5001C103.883 45.1161 103.37 44.5857 103.016 43.9087C102.661 43.2279 102.487 42.4406 102.494 41.5467C102.501 40.6528 102.687 39.8701 103.052 39.1986C103.417 38.5234 103.938 38.0008 104.615 37.631C105.292 37.2574 106.104 37.0742 107.051 37.0815C107.907 37.088 108.646 37.249 109.269 37.5644C109.896 37.876 110.379 38.3153 110.719 38.8823C111.06 39.4456 111.229 40.106 111.227 40.8635L108.318 40.8413C108.28 40.3826 108.15 40.0331 107.928 39.7928C107.71 39.5487 107.427 39.4253 107.079 39.4226C106.806 39.4206 106.567 39.4983 106.361 39.6558C106.155 39.8095 105.994 40.045 105.878 40.3623C105.762 40.6759 105.702 41.0712 105.699 41.5485C105.695 42.0258 105.749 42.4239 105.86 42.743C105.971 43.0582 106.129 43.2962 106.332 43.4568C106.535 43.6137 106.773 43.6932 107.046 43.6952C107.277 43.697 107.482 43.6456 107.661 43.5409C107.84 43.4324 107.985 43.2744 108.096 43.0669C108.211 42.8557 108.282 42.5986 108.307 42.2958L111.216 42.3181C111.198 43.0869 111.017 43.756 110.672 44.3253C110.327 44.8909 109.84 45.3265 109.213 45.6324C108.589 45.9382 107.846 46.0878 106.982 46.0812ZM117.753 37.2771L117.736 39.5497L111.986 39.5057L112.003 37.233L117.753 37.2771ZM113.133 35.1507L116.269 35.1747L116.208 43.1859C116.207 43.3071 116.227 43.4095 116.268 43.4931C116.309 43.573 116.373 43.6341 116.46 43.6764C116.547 43.715 116.658 43.7348 116.794 43.7358C116.889 43.7365 116.999 43.726 117.124 43.7043C117.253 43.6825 117.348 43.6643 117.409 43.6496L117.846 45.8576C117.706 45.8982 117.505 45.9478 117.243 46.0064C116.985 46.065 116.678 46.1024 116.322 46.1186C115.602 46.151 114.998 46.0725 114.511 45.8832C114.024 45.69 113.659 45.3899 113.416 44.9827C113.172 44.5755 113.057 44.0671 113.069 43.4573L113.133 35.1507ZM118.966 46.0139L119.033 37.2869L122.078 37.3102L122.066 38.9692L122.156 38.9699C122.32 38.3575 122.576 37.9106 122.922 37.6292C123.273 37.3478 123.681 37.2088 124.147 37.2124C124.284 37.2134 124.418 37.2258 124.55 37.2496C124.687 37.2696 124.817 37.299 124.942 37.3378L124.921 40.0139C124.766 39.9596 124.575 39.9184 124.348 39.8902C124.121 39.8619 123.926 39.8471 123.763 39.8459C123.457 39.8435 123.18 39.9115 122.932 40.0498C122.689 40.1843 122.496 40.376 122.354 40.6249C122.212 40.87 122.14 41.1593 122.137 41.4926L122.102 46.0379L118.966 46.0139ZM129.607 46.2545C128.66 46.2472 127.85 46.0535 127.179 45.6734C126.508 45.2894 125.995 44.759 125.64 44.082C125.285 43.4012 125.112 42.6139 125.118 41.72C125.125 40.8261 125.311 40.0434 125.676 39.3719C126.041 38.6966 126.562 38.1741 127.239 37.8043C127.916 37.4307 128.729 37.2475 129.675 37.2547C130.622 37.262 131.432 37.4576 132.103 37.8415C132.774 38.2217 133.287 38.7521 133.642 39.4329C133.997 40.1099 134.17 40.8953 134.164 41.7892C134.157 42.6832 133.971 43.4677 133.606 44.143C133.241 44.8145 132.72 45.337 132.043 45.7106C131.366 46.0804 130.553 46.2617 129.607 46.2545ZM129.647 43.9365C129.912 43.9386 130.142 43.8513 130.337 43.6748C130.531 43.4982 130.683 43.2456 130.791 42.9169C130.9 42.5881 130.956 42.1965 130.959 41.742C130.963 41.2837 130.913 40.8912 130.809 40.5647C130.706 40.2343 130.558 39.9794 130.366 39.7999C130.174 39.6204 129.946 39.5296 129.681 39.5276C129.4 39.5254 129.159 39.6126 128.957 39.7891C128.755 39.9656 128.6 40.2182 128.491 40.5469C128.383 40.8718 128.327 41.2635 128.323 41.7218C128.32 42.1763 128.37 42.5688 128.473 42.8991C128.577 43.2295 128.728 43.4844 128.927 43.664C129.127 43.8435 129.367 43.9344 129.647 43.9365ZM138.577 41.2548L138.539 46.1638L135.403 46.1398L135.47 37.4128L138.447 37.4356L138.434 39.0946L138.525 39.0953C138.719 38.5437 139.056 38.1126 139.535 37.8019C140.019 37.4912 140.58 37.3383 141.221 37.3432C141.838 37.3479 142.373 37.494 142.825 37.7816C143.281 38.0654 143.633 38.4545 143.879 38.9488C144.129 39.4431 144.25 40.0066 144.241 40.6391L144.198 46.2071L141.062 46.1831L141.1 41.2742C141.107 40.8424 140.999 40.5025 140.778 40.2546C140.56 40.0067 140.254 39.8813 139.86 39.8783C139.603 39.8763 139.377 39.9314 139.183 40.0435C138.993 40.1519 138.846 40.3099 138.742 40.5175C138.638 40.7212 138.583 40.967 138.577 41.2548ZM145.746 46.219L145.813 37.492L148.95 37.516L148.883 46.243L145.746 46.219ZM147.388 36.5949C146.964 36.5917 146.602 36.4487 146.301 36.1661C146 35.8835 145.851 35.5452 145.854 35.1513C145.857 34.7574 146.011 34.4214 146.316 34.1435C146.621 33.8655 146.986 33.7281 147.41 33.7314C147.838 33.7347 148.201 33.8776 148.498 34.1602C148.799 34.4428 148.948 34.7811 148.945 35.175C148.942 35.5689 148.788 35.9049 148.483 36.1828C148.181 36.4608 147.816 36.5982 147.388 36.5949ZM154.684 46.4465C153.737 46.4393 152.928 46.2456 152.256 45.8654C151.585 45.4815 151.072 44.951 150.717 44.2741C150.363 43.5933 150.189 42.8059 150.196 41.912C150.203 41.0181 150.389 40.2354 150.754 39.564C151.119 38.8887 151.64 38.3662 152.317 37.9963C152.994 37.6227 153.806 37.4396 154.753 37.4468C155.609 37.4534 156.348 37.6143 156.971 37.9297C157.597 38.2413 158.081 38.6807 158.421 39.2477C158.761 39.8109 158.931 40.4713 158.929 41.2289L156.02 41.2066C155.981 40.748 155.851 40.3985 155.63 40.1581C155.412 39.914 155.129 39.7907 154.78 39.788C154.508 39.7859 154.268 39.8636 154.063 40.0211C153.857 40.1749 153.696 40.4104 153.58 40.7277C153.464 41.0412 153.404 41.4366 153.4 41.9139C153.397 42.3911 153.451 42.7893 153.562 43.1083C153.673 43.4236 153.83 43.6615 154.034 43.8222C154.237 43.979 154.475 44.0585 154.748 44.0606C154.979 44.0624 155.184 44.0109 155.362 43.9062C155.541 43.7977 155.687 43.6397 155.798 43.4323C155.913 43.221 155.983 42.964 156.008 42.6611L158.917 42.6834C158.9 43.4522 158.719 44.1213 158.374 44.6907C158.028 45.2562 157.542 45.6919 156.915 45.9977C156.291 46.3035 155.548 46.4532 154.684 46.4465Z" fill="#665BE3"/>
<path d="M119.014 37L124.018 37.0383L124.005 38.8275L119 38.7892L119.014 37Z" fill="#665BE3"/>
<path d="M136.568 37.7422L142.173 37.7851L142.158 39.7626L136.553 39.7197L136.568 37.7422Z" fill="#665BE3"/>
<path d="M77.1221 54.7554C76.6155 54.7515 76.199 54.639 75.8727 54.4178C75.549 54.1967 75.3514 53.8912 75.2797 53.5013L75.8804 53.4059C75.9426 53.6517 76.0864 53.8488 76.3119 53.9972C76.5401 54.1429 76.8223 54.2171 77.1582 54.2197C77.4862 54.2222 77.7454 54.1562 77.9358 54.0216C78.1262 53.8844 78.2223 53.6971 78.2241 53.4598C78.2251 53.3265 78.1953 53.2183 78.1346 53.1351C78.0766 53.0493 77.9558 52.9697 77.7724 52.8963C77.589 52.8229 77.3149 52.7355 76.9504 52.634C76.5592 52.5244 76.2534 52.4154 76.0329 52.307C75.8123 52.1986 75.656 52.0748 75.5637 51.9354C75.4714 51.7934 75.4261 51.621 75.4276 51.4183C75.4295 51.173 75.5005 50.9589 75.6406 50.776C75.7807 50.5904 75.9738 50.4478 76.2199 50.3484C76.466 50.2463 76.7517 50.1964 77.077 50.1989C77.4024 50.2014 77.6926 50.257 77.9478 50.3656C78.2056 50.4716 78.4125 50.6198 78.5684 50.8104C78.7243 51.0009 78.8159 51.2216 78.8433 51.4725L78.2425 51.5759C78.2045 51.3223 78.0793 51.1213 77.8671 50.973C77.6576 50.8221 77.3902 50.7427 77.0649 50.7349C76.7583 50.7245 76.5086 50.7813 76.3156 50.9051C76.1227 51.0263 76.0254 51.1896 76.0238 51.3949C76.023 51.5096 76.0569 51.6085 76.1256 51.6917C76.1943 51.7722 76.319 51.8492 76.4998 51.9226C76.6833 51.996 76.944 52.0766 77.282 52.1646C77.6785 52.2689 77.9897 52.378 78.2155 52.4917C78.4413 52.6055 78.6016 52.7387 78.6965 52.8914C78.7913 53.0441 78.8379 53.2325 78.8361 53.4565C78.833 53.8645 78.6786 54.1847 78.3728 54.417C78.0697 54.6467 77.6528 54.7595 77.1221 54.7554ZM81.5051 54.793C81.0704 54.7897 80.7032 54.6895 80.4034 54.4925C80.1035 54.2956 79.8763 54.0258 79.7216 53.6833C79.5695 53.3381 79.4925 52.9428 79.4906 52.4975C79.4994 52.0442 79.5851 51.6475 79.7477 51.3074C79.9104 50.9647 80.1431 50.6998 80.4459 50.5127C80.7486 50.3231 81.1147 50.2299 81.544 50.2331C81.9813 50.2365 82.3605 50.3461 82.6815 50.5619C83.0052 50.7777 83.2257 51.0714 83.3428 51.443L82.7654 51.6225C82.6661 51.3631 82.5063 51.1619 82.286 51.0189C82.0685 50.8732 81.8184 50.7993 81.5357 50.7971C81.2184 50.7947 80.9552 50.866 80.746 51.0111C80.5369 51.1535 80.3807 51.3536 80.2774 51.6115C80.1741 51.8694 80.1198 52.1663 80.1146 52.5023C80.116 53.0196 80.2328 53.4365 80.465 53.753C80.6973 54.0668 81.0454 54.2254 81.5094 54.229C81.8027 54.2312 82.0526 54.1665 82.2589 54.0347C82.468 53.9003 82.6268 53.7042 82.7355 53.4464L83.3261 53.6269C83.1632 54.0097 82.9262 54.3012 82.6154 54.5015C82.3045 54.6991 81.9344 54.7963 81.5051 54.793ZM87.2635 54.7171L87.2804 52.5131C87.2823 52.2732 87.2613 52.053 87.2175 51.8526C87.1737 51.6496 87.1017 51.4731 87.0015 51.323C86.904 51.1702 86.7756 51.0519 86.6162 50.968C86.4595 50.8841 86.2679 50.8413 86.0412 50.8396C85.8332 50.838 85.6489 50.8726 85.4884 50.9434C85.3305 51.0142 85.1964 51.1171 85.086 51.2523C84.9783 51.3848 84.8958 51.5469 84.8383 51.7384C84.7808 51.93 84.7511 52.1484 84.7493 52.3938L84.334 52.2986C84.3374 51.8559 84.4175 51.4845 84.5745 51.1844C84.7315 50.8842 84.9466 50.6579 85.2197 50.5053C85.4929 50.3527 85.8055 50.2778 86.1575 50.2805C86.4161 50.2825 86.6412 50.3242 86.8325 50.4057C87.0266 50.4871 87.1898 50.5964 87.3221 50.7334C87.457 50.8705 87.5651 51.0273 87.6465 51.2039C87.7278 51.3779 87.7864 51.5637 87.8222 51.7613C87.858 51.9562 87.8752 52.151 87.8737 52.3457L87.8555 54.7216L87.2635 54.7171ZM84.1396 54.6932L84.1837 48.9333L84.7157 48.9374L84.6908 52.1893L84.7508 52.1898L84.7316 54.6977L84.1396 54.6932ZM90.6965 54.8634C90.2672 54.8601 89.9013 54.76 89.5988 54.563C89.2963 54.366 89.065 54.0949 88.905 53.7496C88.745 53.4044 88.6667 53.0091 88.6701 52.5638C88.6735 52.1105 88.7593 51.7138 88.9272 51.3737C89.0951 51.0337 89.3318 50.7701 89.6373 50.5831C89.9454 50.3935 90.3101 50.3003 90.7314 50.3035C91.1634 50.3068 91.5307 50.407 91.8332 50.604C92.1384 50.7983 92.3696 51.0681 92.527 51.4133C92.687 51.7559 92.7654 52.1498 92.762 52.5951C92.7585 53.0485 92.6741 53.4465 92.5088 53.7892C92.3435 54.1293 92.1068 54.3942 91.7987 54.5838C91.4906 54.7735 91.1232 54.8666 90.6965 54.8634ZM90.7008 54.2994C91.1808 54.3031 91.5394 54.1471 91.7765 53.8316C92.0136 53.5134 92.1341 53.0997 92.138 52.5904C92.142 52.0677 92.0265 51.6508 91.7915 51.3397C91.5593 51.0285 91.2044 50.8712 90.7271 50.8675C90.4045 50.865 90.1372 50.9363 89.9255 51.0814C89.7164 51.2238 89.5588 51.4239 89.4529 51.6818C89.3496 51.937 89.2966 52.2326 89.2941 52.5686C89.2901 53.0886 89.4069 53.5068 89.6445 53.8233C89.8821 54.1371 90.2342 54.2958 90.7008 54.2994ZM95.4308 54.8996C95.0014 54.8964 94.6355 54.7962 94.333 54.5992C94.0305 54.4022 93.7993 54.1311 93.6392 53.7859C93.4792 53.4407 93.4009 53.0454 93.4043 52.6001C93.4078 52.1467 93.4935 51.75 93.6614 51.41C93.8294 51.0699 94.0661 50.8064 94.3715 50.6194C94.6796 50.4298 95.0444 50.3365 95.4657 50.3398C95.8977 50.3431 96.2649 50.4432 96.5674 50.6402C96.8726 50.8346 97.1039 51.1043 97.2612 51.4496C97.4213 51.7921 97.4996 52.1861 97.4962 52.6314C97.4927 53.0847 97.4083 53.4827 97.243 53.8255C97.0778 54.1656 96.8411 54.4304 96.5329 54.6201C96.2248 54.8097 95.8574 54.9029 95.4308 54.8996ZM95.4351 54.3357C95.9151 54.3393 96.2736 54.1834 96.5107 53.8679C96.7478 53.5497 96.8683 53.1359 96.8722 52.6266C96.8762 52.104 96.7607 51.6871 96.5258 51.3759C96.2935 51.0648 95.9387 50.9074 95.4614 50.9038C95.1387 50.9013 94.8715 50.9726 94.6597 51.1176C94.4506 51.26 94.2931 51.4602 94.1871 51.718C94.0838 51.9732 94.0309 52.2688 94.0283 52.6048C94.0243 53.1248 94.1411 53.5431 94.3787 53.8596C94.6163 54.1734 94.9684 54.3321 95.4351 54.3357ZM98.442 54.8027L98.487 48.9229L99.075 48.9274L99.0299 54.8072L98.442 54.8027Z" fill="#665BE3"/>
<defs>
<filter id="filter0_i_410_2" x="22.915" y="15.6543" width="48.4414" height="49.8711" filterUnits="userSpaceOnUse" color-interpolation-filters="sRGB">
<feFlood flood-opacity="0" result="BackgroundImageFix"/>
<feBlend mode="normal" in="SourceGraphic" in2="BackgroundImageFix" result="shape"/>
<feColorMatrix in="SourceAlpha" type="matrix" values="0 0 0 0 0 0 0 0 0 0 0 0 0 0 0 0 0 0 127 0" result="hardAlpha"/>
<feOffset dx="4" dy="4"/>
<feGaussianBlur stdDeviation="11"/>
<feComposite in2="hardAlpha" operator="arithmetic" k2="-1" k3="1"/>
<feColorMatrix type="matrix" values="0 0 0 0 0 0 0 0 0 0 0 0 0 0 0 0 0 0 0.25 0"/>
<feBlend mode="normal" in2="shape" result="effect1_innerShadow_410_2"/>
</filter>
</defs>
</svg>