<svg width="172" height="89" viewBox="0 0 172 89" fill="none" xmlns="http://www.w3.org/2000/svg">
<g filter="url(#filter0_i_445_200)">
<path d="M38.085 23.8409C38.113 16.5358 47.4725 13.5343 51.7437 19.4607C53.6539 22.1111 57.0534 23.23 60.1643 22.2324C67.1205 20.0016 72.8674 27.9755 68.5509 33.869C66.6205 36.5047 66.6068 40.0836 68.517 42.734C72.7882 48.6604 66.9804 56.59 60.0415 54.306C56.9383 53.2846 53.5303 54.3775 51.5999 57.0132C47.2834 62.9067 37.9472 59.8336 37.9752 52.5285C37.9877 49.2615 35.8951 46.3581 32.7919 45.3366C25.853 43.0526 25.8907 33.2236 32.8469 30.9928C35.9578 29.9952 38.0725 27.1079 38.085 23.8409Z" fill="white"/>
</g>
<mask id="mask0_445_200" style="mask-type:alpha" maskUnits="userSpaceOnUse" x="38" y="25" width="24" height="25">
<path fill-rule="evenodd" clip-rule="evenodd" d="M55.2643 25.3569L40.8056 35.2883L41.3323 35.4842L38.1127 44.048L42.0031 49.1973L55.0736 48.0068L61.373 42.9482L59.5116 35.036L55.1766 25.686L55.2643 25.3569Z" fill="black"/>
</mask>
<g mask="url(#mask0_445_200)">
<ellipse cx="2.92326" cy="2.95763" rx="2.92326" ry="2.95763" transform="matrix(0.976133 0.00387929 -0.00447972 1.02276 41.8181 29.4916)" fill="#252628"/>
<rect width="5.84652" height="10.085" transform="matrix(0.976133 0.00387929 -0.00447972 1.02276 41.7886 36.2361)" fill="#252628"/>
<rect width="5.84662" height="20.7522" transform="matrix(0.976133 0.00387929 -0.00447972 1.02276 49.3213 25.3558)" fill="#252628"/>
<path d="M49.2549 40.5308L59.3855 40.571C59.3709 43.9123 56.7739 46.6107 53.5849 46.5981L49.2284 46.5808L49.2549 40.5308Z" fill="#252628"/>
<path d="M49.8677 30.0133L59.9983 30.0536C59.9837 33.3949 57.3866 36.0933 54.1977 36.0806L49.8412 36.0633L49.8677 30.0133Z" fill="#252628"/>
</g>
<path fill-rule="evenodd" clip-rule="evenodd" d="M86.4544 34.314C87.5169 35.6628 88.0927 37.368 88.0792 39.1259L88.05 39.1257C88.0475 39.2926 88.0369 39.4382 88.0183 39.551L78.5536 39.4785C78.3604 40.7419 79.4177 41.5122 79.9704 41.7394L87.5593 41.7975C87.5432 41.8311 87.5212 41.8934 87.4909 41.9791C87.4484 42.0995 87.3895 42.2662 87.3076 42.4645C87.2036 42.716 86.8604 43.2262 86.5796 43.6212L86.5958 43.6346C85.5749 45.0208 84.1231 45.9781 82.4992 46.3359C80.8753 46.6937 79.1849 46.4287 77.7292 45.5881C76.2735 44.7476 75.1471 43.3861 74.5507 41.7463C73.9544 40.1065 73.9269 38.2951 74.4732 36.6347C75.0194 34.9744 76.1039 33.5731 77.5333 32.6806C78.9628 31.7882 80.6443 31.4625 82.2781 31.7616C83.912 32.0607 85.392 32.9653 86.4544 34.314Z" fill="white"/>
<path d="M88.0792 39.1259L88.0773 39.3759L88.3273 39.3778L88.3292 39.1278L88.0792 39.1259ZM86.4544 34.314L86.258 34.4687L86.258 34.4687L86.4544 34.314ZM88.05 39.1257L88.052 38.8757L87.8039 38.8738L87.8001 39.1219L88.05 39.1257ZM88.0183 39.551L88.0163 39.801L88.2301 39.8026L88.2649 39.5917L88.0183 39.551ZM78.5536 39.4785L78.5556 39.2285L78.3392 39.2268L78.3065 39.4407L78.5536 39.4785ZM79.9704 41.7394L79.8754 41.9706L79.9201 41.989L79.9685 41.9894L79.9704 41.7394ZM87.5593 41.7975L87.7846 41.9059L87.9556 41.5505L87.5612 41.5475L87.5593 41.7975ZM87.4909 41.9791L87.2552 41.8958L87.2552 41.8958L87.4909 41.9791ZM87.3076 42.4645L87.5386 42.56L87.3076 42.4645ZM86.5796 43.6212L86.3758 43.4763L86.2412 43.6657L86.4202 43.8138L86.5796 43.6212ZM86.5958 43.6346L86.7971 43.7829L86.9373 43.5926L86.7552 43.442L86.5958 43.6346ZM82.4992 46.3359L82.4454 46.0918L82.4992 46.3359ZM77.7292 45.5881L77.8542 45.3716L77.7292 45.5881ZM74.5507 41.7463L74.3158 41.8317L74.5507 41.7463ZM74.4732 36.6347L74.7107 36.7129L74.4732 36.6347ZM77.5333 32.6806L77.4009 32.4686L77.5333 32.6806ZM82.2781 31.7616L82.2331 32.0075L82.2781 31.7616ZM88.3292 39.1278C88.3431 37.3146 87.7493 35.5538 86.6508 34.1593L86.258 34.4687C87.2844 35.7717 87.8423 37.4214 87.8292 39.124L88.3292 39.1278ZM88.0481 39.3757L88.0773 39.3759L88.0811 38.8759L88.052 38.8757L88.0481 39.3757ZM87.8001 39.1219C87.7976 39.2821 87.7874 39.4142 87.7716 39.5103L88.2649 39.5917C88.2863 39.4622 88.2974 39.3032 88.3 39.1295L87.8001 39.1219ZM88.0202 39.301L78.5556 39.2285L78.5517 39.7285L88.0163 39.801L88.0202 39.301ZM78.3065 39.4407C78.197 40.1565 78.4446 40.7341 78.7886 41.1556C79.1281 41.5715 79.5668 41.8437 79.8754 41.9706L80.0655 41.5081C79.8213 41.4078 79.455 41.1813 79.176 40.8394C78.9014 40.5031 78.717 40.0638 78.8008 39.5163L78.3065 39.4407ZM79.9685 41.9894L87.5574 42.0475L87.5612 41.5475L79.9724 41.4894L79.9685 41.9894ZM87.334 41.6891C87.3103 41.7384 87.2826 41.8182 87.2552 41.8958L87.7266 42.0623C87.7597 41.9686 87.776 41.9238 87.7846 41.9059L87.334 41.6891ZM87.2552 41.8958C87.2128 42.0159 87.1558 42.1772 87.0765 42.369L87.5386 42.56C87.6233 42.3551 87.684 42.1831 87.7266 42.0623L87.2552 41.8958ZM87.0765 42.369C87.0341 42.4716 86.9339 42.6449 86.7996 42.8539C86.6686 43.0578 86.515 43.2806 86.3758 43.4763L86.7833 43.766C86.925 43.5667 87.0835 43.337 87.2202 43.1242C87.3537 42.9164 87.4771 42.7089 87.5386 42.56L87.0765 42.369ZM86.7552 43.442L86.7389 43.4285L86.4202 43.8138L86.4365 43.8272L86.7552 43.442ZM82.553 46.5801C84.2383 46.2088 85.7417 45.216 86.7971 43.7829L86.3945 43.4864C85.4081 44.8257 84.0079 45.7475 82.4454 46.0918L82.553 46.5801ZM77.6042 45.8046C79.1133 46.676 80.8674 46.9514 82.553 46.5801L82.4454 46.0918C80.8832 46.436 79.2565 46.1813 77.8542 45.3716L77.6042 45.8046ZM74.3158 41.8317C74.9314 43.5245 76.0955 44.9335 77.6042 45.8046L77.8542 45.3716C76.4514 44.5617 75.3627 43.2477 74.7857 41.6609L74.3158 41.8317ZM74.2357 36.5566C73.672 38.2701 73.7003 40.1392 74.3158 41.8317L74.7857 41.6609C74.2086 40.0739 74.1819 38.32 74.7107 36.7129L74.2357 36.5566ZM77.4009 32.4686C75.9199 33.3933 74.7995 34.843 74.2357 36.5566L74.7107 36.7129C75.2394 35.1059 76.2879 33.753 77.6657 32.8927L77.4009 32.4686ZM82.3231 31.5157C80.627 31.2051 78.8824 31.5436 77.4009 32.4686L77.6657 32.8927C79.0432 32.0327 80.6615 31.7198 82.2331 32.0075L82.3231 31.5157ZM86.6508 34.1593C85.5521 32.7645 84.019 31.8262 82.3231 31.5157L82.2331 32.0075C83.8049 32.2953 85.2319 33.166 86.258 34.4687L86.6508 34.1593Z" fill="white"/>
<path d="M93.0622 33.8695L92.9786 44.7783L90.0384 44.7558L90.1219 33.847L93.0622 33.8695ZM98.3959 44.969C97.5224 44.9623 96.7708 44.7896 96.1413 44.451C95.5154 44.1088 95.0344 43.6221 94.6983 42.991C94.3658 42.3563 94.2029 41.5987 94.2096 40.718C94.2161 39.8729 94.3922 39.1356 94.7379 38.5061C95.0837 37.8766 95.5686 37.3885 96.1927 37.0417C96.8169 36.6949 97.5515 36.5247 98.3966 36.5312C99.0145 36.5359 99.5731 36.6361 100.072 36.8317C100.572 37.0273 100.997 37.3093 101.35 37.6778C101.702 38.0427 101.972 38.4851 102.16 39.0051C102.348 39.525 102.439 40.1099 102.434 40.7597L102.429 41.4415L95.1207 41.3855L95.1331 39.7663L99.7353 39.8015C99.7335 39.5671 99.6747 39.3607 99.5589 39.1822C99.4467 39.0003 99.2933 38.8588 99.0987 38.7579C98.9077 38.6534 98.6898 38.6003 98.4447 38.5984C98.2068 38.5966 97.988 38.6464 97.7884 38.7479C97.5888 38.8458 97.4279 38.983 97.3058 39.1597C97.1873 39.3363 97.1235 39.5436 97.1146 39.7814L97.1012 41.5285C97.0992 41.7913 97.1525 42.0261 97.261 42.2329C97.3695 42.4397 97.5263 42.6025 97.7313 42.7213C97.9364 42.84 98.1845 42.9005 98.4757 42.9027C98.6781 42.9043 98.863 42.8773 99.0303 42.8218C99.2012 42.7662 99.3474 42.6857 99.469 42.5801C99.5905 42.4709 99.6803 42.3402 99.7383 42.188L102.423 42.2085C102.326 42.776 102.104 43.2679 101.756 43.6843C101.409 44.0971 100.95 44.4168 100.38 44.6432C99.8137 44.8662 99.1523 44.9747 98.3959 44.969ZM107.543 45.039C106.655 45.0322 105.897 44.8506 105.267 44.4942C104.638 44.1343 104.157 43.637 103.824 43.0023C103.492 42.3641 103.329 41.626 103.335 40.7879C103.342 39.9499 103.516 39.2161 103.858 38.5866C104.2 37.9535 104.689 37.4637 105.324 37.117C105.959 36.7667 106.72 36.595 107.608 36.6018C108.41 36.6079 109.103 36.7588 109.687 37.0545C110.274 37.3466 110.727 37.7585 111.046 38.2901C111.366 38.8181 111.524 39.4372 111.522 40.1475L108.795 40.1266C108.759 39.6966 108.638 39.369 108.43 39.1436C108.226 38.9148 107.96 38.7991 107.633 38.7966C107.378 38.7947 107.153 38.8675 106.961 39.0152C106.768 39.1593 106.617 39.3801 106.508 39.6776C106.399 39.9715 106.343 40.3422 106.34 40.7896C106.336 41.237 106.387 41.6103 106.491 41.9094C106.595 42.205 106.743 42.428 106.933 42.5787C107.124 42.7257 107.347 42.8002 107.603 42.8022C107.819 42.8038 108.011 42.7556 108.179 42.6574C108.347 42.5557 108.483 42.4076 108.587 42.2131C108.695 42.0151 108.761 41.7741 108.785 41.4902L111.512 41.5111C111.496 42.2318 111.326 42.8591 111.002 43.3929C110.678 43.9231 110.222 44.3315 109.634 44.6182C109.05 44.9049 108.353 45.0452 107.543 45.039ZM117.641 36.7851L117.624 38.9158L112.234 38.8745L112.25 36.7439L117.641 36.7851ZM113.309 34.7917L116.249 34.8142L116.192 42.3246C116.191 42.4383 116.21 42.5343 116.248 42.6127C116.287 42.6876 116.347 42.7449 116.428 42.7846C116.51 42.8207 116.614 42.8392 116.742 42.8402C116.831 42.8409 116.934 42.831 117.051 42.8106C117.172 42.7902 117.261 42.7732 117.318 42.7594L117.728 44.8294C117.596 44.8674 117.408 44.9139 117.162 44.9689C116.921 45.0238 116.633 45.0589 116.299 45.0741C115.624 45.1045 115.058 45.0309 114.601 44.8534C114.144 44.6723 113.802 44.3909 113.574 44.0092C113.346 43.6274 113.238 43.1508 113.25 42.5791L113.309 34.7917ZM118.778 44.9759L118.84 36.7943L121.695 36.8162L121.684 38.3715L121.769 38.3722C121.922 37.7981 122.162 37.3791 122.487 37.1152C122.816 36.8514 123.198 36.7212 123.635 36.7245C123.763 36.7255 123.889 36.7371 124.013 36.7594C124.141 36.7781 124.263 36.8057 124.38 36.8421L124.361 39.3509C124.216 39.3001 124.037 39.2614 123.824 39.2349C123.611 39.2084 123.428 39.1946 123.275 39.1934C122.988 39.1912 122.728 39.2549 122.496 39.3845C122.268 39.5106 122.087 39.6904 121.954 39.9237C121.821 40.1535 121.753 40.4247 121.751 40.7372L121.718 44.9984L118.778 44.9759ZM128.753 45.2015C127.866 45.1947 127.107 45.0131 126.478 44.6567C125.848 44.2967 125.367 43.7994 125.035 43.1648C124.702 42.5265 124.539 41.7884 124.546 40.9504C124.552 40.1123 124.726 39.3785 125.069 38.749C125.411 38.116 125.899 37.6261 126.534 37.2794C127.169 36.9291 127.93 36.7574 128.818 36.7642C129.706 36.771 130.464 36.9544 131.094 37.3143C131.723 37.6707 132.204 38.168 132.536 38.8062C132.869 39.4409 133.032 40.1773 133.026 41.0153C133.019 41.8534 132.845 42.5889 132.503 43.222C132.16 43.8515 131.672 44.3413 131.037 44.6916C130.402 45.0383 129.641 45.2083 128.753 45.2015ZM128.791 43.0284C129.04 43.0303 129.255 42.9485 129.438 42.783C129.62 42.6175 129.762 42.3806 129.864 42.0724C129.966 41.7643 130.018 41.3971 130.022 40.971C130.025 40.5413 129.978 40.1734 129.881 39.8673C129.784 39.5576 129.645 39.3186 129.465 39.1503C129.286 38.982 129.071 38.8969 128.823 38.895C128.56 38.893 128.334 38.9747 128.144 39.1402C127.955 39.3056 127.809 39.5424 127.708 39.8506C127.606 40.1552 127.553 40.5224 127.55 40.9521C127.547 41.3782 127.594 41.7461 127.691 42.0558C127.788 42.3655 127.93 42.6045 128.117 42.7729C128.304 42.9412 128.528 43.0264 128.791 43.0284ZM137.163 40.5143L137.128 45.1165L134.187 45.0939L134.25 36.9124L137.041 36.9337L137.029 38.4891L137.115 38.4897C137.296 37.9726 137.612 37.5684 138.061 37.2771C138.515 36.9859 139.041 36.8425 139.641 36.8471C140.22 36.8515 140.722 36.9886 141.146 37.2581C141.573 37.5242 141.903 37.889 142.134 38.3524C142.368 38.8158 142.481 39.3441 142.473 39.9371L142.433 45.1571L139.493 45.1346L139.528 40.5324C139.535 40.1276 139.434 39.809 139.226 39.5766C139.022 39.3442 138.735 39.2266 138.366 39.2238C138.125 39.2219 137.913 39.2736 137.731 39.3787C137.553 39.4803 137.415 39.6284 137.317 39.823C137.22 40.014 137.169 40.2445 137.163 40.5143ZM143.884 45.1682L143.947 36.9866L146.887 37.0091L146.825 45.1907L143.884 45.1682ZM145.424 36.1456C145.026 36.1426 144.686 36.0086 144.404 35.7436C144.122 35.4787 143.982 35.1616 143.985 34.7922C143.988 34.4229 144.133 34.108 144.419 33.8474C144.705 33.5868 145.047 33.458 145.444 33.4611C145.846 33.4641 146.186 33.5981 146.464 33.8631C146.746 34.128 146.886 34.4451 146.883 34.8144C146.88 35.1837 146.736 35.4987 146.45 35.7593C146.167 36.0199 145.825 36.1487 145.424 36.1456ZM152.263 45.3815C151.376 45.3747 150.617 45.1931 149.988 44.8367C149.358 44.4768 148.877 43.9795 148.545 43.3448C148.212 42.7066 148.049 41.9685 148.056 41.1304C148.062 40.2924 148.236 39.5586 148.579 38.9291C148.921 38.2961 149.409 37.8062 150.044 37.4595C150.679 37.1092 151.44 36.9375 152.328 36.9443C153.13 36.9504 153.824 37.1013 154.407 37.397C154.995 37.6892 155.448 38.101 155.767 38.6326C156.086 39.1606 156.245 39.7798 156.243 40.49L153.515 40.4691C153.48 40.0391 153.358 39.7115 153.15 39.4862C152.946 39.2573 152.68 39.1416 152.354 39.1391C152.098 39.1372 151.874 39.21 151.681 39.3577C151.488 39.5018 151.337 39.7226 151.228 40.0201C151.12 40.314 151.063 40.6847 151.06 41.1321C151.057 41.5796 151.107 41.9528 151.211 42.2519C151.316 42.5475 151.463 42.7706 151.654 42.9212C151.844 43.0682 152.067 43.1427 152.323 43.1447C152.54 43.1464 152.732 43.0981 152.899 43C153.067 42.8983 153.203 42.7502 153.308 42.5556C153.416 42.3576 153.482 42.1166 153.505 41.8327L156.232 41.8536C156.216 42.5744 156.046 43.2016 155.722 43.7354C155.399 44.2656 154.943 44.674 154.355 44.9607C153.77 45.2475 153.073 45.3877 152.263 45.3815Z" fill="white"/>
<path d="M119.365 36.6956L124.144 36.7322L124.131 38.4405L119.352 38.4039L119.365 36.6956Z" fill="white"/>
<path d="M135.127 37.4043L140.479 37.4453L140.465 39.3335L135.112 39.2925L135.127 37.4043Z" fill="white"/>
<path d="M79.198 53.0454C78.7547 53.042 78.3903 52.9435 78.1047 52.75C77.8216 52.5565 77.6486 52.2892 77.5859 51.948L78.1115 51.8645C78.1659 52.0796 78.2917 52.2521 78.4891 52.3819C78.6888 52.5095 78.9356 52.5744 79.2296 52.5766C79.5166 52.5788 79.7434 52.521 79.91 52.4033C80.0765 52.2833 80.1606 52.1194 80.1622 51.9117C80.1631 51.7951 80.137 51.7004 80.0839 51.6276C80.0331 51.5526 79.9275 51.4829 79.767 51.4187C79.6065 51.3545 79.3667 51.278 79.0477 51.1892C78.7055 51.0932 78.4378 50.9978 78.2449 50.903C78.0519 50.8082 77.9151 50.6998 77.8344 50.5779C77.7537 50.4536 77.714 50.3028 77.7153 50.1254C77.717 49.9108 77.7791 49.7234 77.9016 49.5634C78.0242 49.401 78.1932 49.2762 78.4085 49.1892C78.6239 49.0999 78.8739 49.0563 79.1585 49.0585C79.4432 49.0606 79.6972 49.1093 79.9205 49.2043C80.1461 49.297 80.3271 49.4268 80.4635 49.5935C80.5999 49.7602 80.6801 49.9533 80.7041 50.1728L80.1784 50.2633C80.1451 50.0414 80.0356 49.8655 79.8499 49.7358C79.6666 49.6037 79.4326 49.5342 79.148 49.5274C78.8797 49.5183 78.6611 49.568 78.4923 49.6764C78.3235 49.7824 78.2384 49.9253 78.237 50.1049C78.2362 50.2053 78.2659 50.2918 78.326 50.3646C78.3861 50.4351 78.4953 50.5024 78.6535 50.5666C78.814 50.6309 79.0421 50.7015 79.3379 50.7784C79.6849 50.8697 79.9571 50.9651 80.1547 51.0647C80.3523 51.1642 80.4926 51.2807 80.5755 51.4144C80.6585 51.548 80.6993 51.7128 80.6978 51.9088C80.695 52.2658 80.5599 52.546 80.2923 52.7493C80.0271 52.9502 79.6623 53.0489 79.198 53.0454ZM83.0331 53.0783C82.6528 53.0753 82.3314 52.9877 82.0691 52.8154C81.8067 52.643 81.6079 52.407 81.4725 52.1073C81.3395 51.8052 81.2721 51.4594 81.2704 51.0697C81.2781 50.6731 81.3531 50.326 81.4954 50.0284C81.6377 49.7285 81.8413 49.4967 82.1063 49.333C82.3712 49.1671 82.6915 49.0855 83.0672 49.0884C83.4498 49.0913 83.7816 49.1872 84.0625 49.376C84.3457 49.5649 84.5386 49.8219 84.6411 50.147L84.1359 50.3041C84.049 50.0771 83.9091 49.901 83.7164 49.7759C83.5261 49.6484 83.3072 49.5838 83.0599 49.5819C82.7822 49.5797 82.5519 49.6421 82.3689 49.7691C82.186 49.8937 82.0493 50.0688 81.9589 50.2944C81.8685 50.5201 81.821 50.7799 81.8164 51.0739C81.8176 51.5266 81.9198 51.8914 82.1231 52.1683C82.3263 52.4428 82.6309 52.5817 83.0369 52.5848C83.2935 52.5867 83.5122 52.5301 83.6927 52.4148C83.8756 52.2972 84.0146 52.1256 84.1097 51.9L84.6265 52.0579C84.4839 52.3928 84.2766 52.6479 84.0046 52.8232C83.7326 52.9961 83.4088 53.0811 83.0331 53.0783ZM88.0717 53.0118L88.0865 51.0834C88.0881 50.8734 88.0698 50.6808 88.0314 50.5055C87.9931 50.3278 87.9301 50.1733 87.8425 50.042C87.7572 49.9083 87.6448 49.8048 87.5054 49.7314C87.3682 49.658 87.2005 49.6206 87.0022 49.6191C86.8202 49.6177 86.659 49.6479 86.5185 49.7099C86.3803 49.7718 86.263 49.8619 86.1664 49.9802C86.0722 50.0961 85.9999 50.2379 85.9496 50.4055C85.8994 50.5731 85.8734 50.7643 85.8717 50.9789L85.5084 50.8957C85.5113 50.5083 85.5815 50.1834 85.7188 49.9207C85.8562 49.6581 86.0444 49.46 86.2834 49.3265C86.5224 49.193 86.796 49.1275 87.1039 49.1298C87.3303 49.1316 87.5272 49.1681 87.6946 49.2393C87.8644 49.3106 88.0072 49.4062 88.1229 49.5261C88.241 49.646 88.3356 49.7833 88.4068 49.9378C88.478 50.09 88.5292 50.2526 88.5606 50.4255C88.5919 50.5961 88.607 50.7665 88.6057 50.9369L88.5897 53.0158L88.0717 53.0118ZM85.3383 52.9909L85.3769 47.9511L85.8424 47.9546L85.8206 50.8L85.8731 50.8004L85.8563 52.9949L85.3383 52.9909ZM91.0756 53.1399C90.6999 53.137 90.3798 53.0494 90.1151 52.877C89.8504 52.7046 89.648 52.4674 89.508 52.1653C89.368 51.8632 89.2995 51.5174 89.3025 51.1277C89.3055 50.7311 89.3805 50.384 89.5274 50.0864C89.6744 49.7889 89.8815 49.5583 90.1488 49.3946C90.4184 49.2287 90.7375 49.1471 91.1062 49.15C91.4841 49.1529 91.8055 49.2405 92.0702 49.4129C92.3372 49.5829 92.5396 49.819 92.6773 50.121C92.8173 50.4208 92.8858 50.7655 92.8829 51.1551C92.8798 51.5518 92.806 51.9001 92.6613 52.2C92.5167 52.4975 92.3096 52.7293 92.04 52.8952C91.7704 53.0612 91.4489 53.1427 91.0756 53.1399ZM91.0794 52.6464C91.4994 52.6496 91.8131 52.5132 92.0205 52.2371C92.228 51.9586 92.3335 51.5966 92.3369 51.151C92.3404 50.6936 92.2393 50.3289 92.0337 50.0566C91.8305 49.7844 91.52 49.6467 91.1024 49.6435C90.8201 49.6413 90.5862 49.7037 90.4009 49.8306C90.218 49.9552 90.0801 50.1303 89.9874 50.3559C89.897 50.5793 89.8507 50.8379 89.8484 51.1319C89.845 51.5869 89.9472 51.9528 90.155 52.2298C90.3629 52.5044 90.6711 52.6432 91.0794 52.6464ZM95.2181 53.1716C94.8424 53.1687 94.5222 53.0811 94.2575 52.9087C93.9929 52.7364 93.7905 52.4991 93.6505 52.197C93.5105 51.895 93.4419 51.5491 93.4449 51.1594C93.448 50.7628 93.5229 50.4157 93.6699 50.1181C93.8168 49.8206 94.024 49.59 94.2912 49.4264C94.5608 49.2604 94.88 49.1789 95.2486 49.1817C95.6266 49.1846 95.9479 49.2722 96.2126 49.4446C96.4797 49.6146 96.682 49.8507 96.8197 50.1528C96.9598 50.4525 97.0283 50.7972 97.0253 51.1869C97.0223 51.5835 96.9484 51.9318 96.8038 52.2317C96.6592 52.5293 96.4521 52.761 96.1825 52.927C95.9128 53.0929 95.5914 53.1744 95.2181 53.1716ZM95.2218 52.6781C95.6418 52.6813 95.9555 52.5449 96.163 52.2688C96.3705 51.9904 96.4759 51.6283 96.4793 51.1827C96.4828 50.7254 96.3818 50.3606 96.1762 50.0883C95.9729 49.8161 95.6625 49.6784 95.2448 49.6752C94.9625 49.673 94.7287 49.7354 94.5434 49.8623C94.3604 49.9869 94.2226 50.162 94.1298 50.3877C94.0395 50.611 93.9932 50.8696 93.9909 51.1636C93.9874 51.6186 94.0896 51.9846 94.2975 52.2615C94.5054 52.5361 94.8135 52.675 95.2218 52.6781ZM97.8529 53.0868L97.8923 47.9419L98.4068 47.9459L98.3673 53.0907L97.8529 53.0868Z" fill="white"/>
<defs>
<filter id="filter0_i_445_200" x="27.6086" y="16.3146" width="46.4336" height="47.7986" filterUnits="userSpaceOnUse" color-interpolation-filters="sRGB">
<feFlood flood-opacity="0" result="BackgroundImageFix"/>
<feBlend mode="normal" in="SourceGraphic" in2="BackgroundImageFix" result="shape"/>
<feColorMatrix in="SourceAlpha" type="matrix" values="0 0 0 0 0 0 0 0 0 0 0 0 0 0 0 0 0 0 127 0" result="hardAlpha"/>
<feOffset dx="4" dy="4"/>
<feGaussianBlur stdDeviation="11"/>
<feComposite in2="hardAlpha" operator="arithmetic" k2="-1" k3="1"/>
<feColorMatrix type="matrix" values="0 0 0 0 0 0 0 0 0 0 0 0 0 0 0 0 0 0 0.25 0"/>
<feBlend mode="normal" in2="shape" result="effect1_innerShadow_445_200"/>
</filter>
</defs>
</svg>
