<svg width="239" height="74" viewBox="0 0 239 74" fill="none" xmlns="http://www.w3.org/2000/svg">
<g filter="url(#filter0_i_0_1)">
<path d="M33.0286 13.3152C33.0749 1.22559 48.5646 -3.7418 55.6332 6.06614C58.7944 10.4524 64.4205 12.3042 69.5689 10.6532C81.0811 6.96132 90.5919 20.1578 83.4484 29.9113C80.2537 34.2732 80.231 40.1962 83.3922 44.5824C90.4608 54.3904 80.8492 67.5136 69.3656 63.7337C64.23 62.0432 58.5899 63.852 55.3952 68.2139C48.2516 77.9674 32.8005 72.8815 32.8468 60.7919C32.8675 55.3852 29.4045 50.5801 24.2688 48.8897C12.7852 45.1097 12.8475 28.8432 24.3597 25.1514C29.5082 23.5003 33.0079 18.7219 33.0286 13.3152Z" fill="#665BE3"/>
</g>
<g filter="url(#filter1_i_0_1)">
<path d="M1.98563 28.7924C1.83575 27.7738 3.07426 27.1495 3.80395 27.8758C4.1266 28.197 4.61996 28.2767 5.02647 28.0718L5.0629 28.0535C5.97085 27.5958 6.93065 28.5743 6.45553 29.4733C6.24112 29.8789 6.31759 30.3778 6.6428 30.7015C7.36334 31.4188 6.75137 32.6427 5.74625 32.49L5.68077 32.48C5.22935 32.4114 4.78395 32.636 4.5706 33.0396L4.53965 33.0982C4.06459 33.997 2.71669 33.761 2.5687 32.7552C2.50191 32.3012 2.14631 31.943 1.69267 31.8741C0.687422 31.7214 0.471677 30.3678 1.37963 29.9101L1.41605 29.8918C1.82256 29.6869 2.05189 29.2428 1.98563 28.7924Z" fill="#665BE3"/>
</g>
<g filter="url(#filter2_i_0_1)">
<path d="M13.9489 13.3505C15.6838 12.5526 17.425 14.443 16.4874 16.1066C16.0682 16.8505 16.1764 17.7801 16.7548 18.4081C18.0486 19.8127 16.7828 22.0521 14.91 21.679C14.073 21.5122 13.2196 21.9047 12.8006 22.6482C11.864 24.31 9.34114 23.8138 9.12317 21.9188C9.02547 21.0694 8.39066 20.3802 7.55215 20.2131C5.68138 19.8404 5.39385 17.2854 7.12687 16.4883C7.90227 16.1316 8.36339 15.3134 8.26587 14.4655C8.04766 12.5684 10.3834 11.4906 11.6771 12.8952C12.2555 13.5232 13.1731 13.7073 13.9489 13.3505Z" fill="#665BE3"/>
</g>
<mask id="mask0_0_1" style="mask-type:alpha" maskUnits="userSpaceOnUse" x="33" y="15" width="39" height="41">
<path fill-rule="evenodd" clip-rule="evenodd" d="M61.4603 15.8245L37.5312 32.261L38.403 32.5853L33.0745 46.7583L39.5131 55.2802L61.1441 53.31L71.5694 44.9383L68.4889 31.8439L61.3149 16.3705L61.4603 15.8245Z" fill="black"/>
</mask>
<g mask="url(#mask0_0_1)">
<ellipse cx="4.83801" cy="4.89488" rx="4.83801" ry="4.89488" transform="matrix(0.976133 0.00387929 -0.00447972 1.02276 39.2068 22.6685)" fill="white"/>
<rect width="9.67602" height="16.6907" transform="matrix(0.976133 0.00387929 -0.00447972 1.02276 39.158 33.8296)" fill="white"/>
<rect width="9.67617" height="34.345" transform="matrix(0.976133 0.00387929 -0.00447972 1.02276 51.6243 15.8237)" fill="white"/>
<path d="M51.5142 40.937L68.2804 41.0036C68.2562 46.5335 63.9581 50.9994 58.6803 50.9784L51.4703 50.9498L51.5142 40.937Z" fill="white"/>
<path d="M52.5286 23.5312L69.2948 23.5979C69.2706 29.1278 64.9725 33.5936 59.6947 33.5727L52.4847 33.544L52.5286 23.5312Z" fill="white"/>
</g>
<path fill-rule="evenodd" clip-rule="evenodd" d="M113.079 30.648C114.837 32.8802 115.79 35.7024 115.768 38.6117L115.72 38.6113C115.716 38.8876 115.698 39.1284 115.667 39.315L100.003 39.195C99.6833 41.2859 101.433 42.5607 102.348 42.9367L114.908 43.0329C114.881 43.0885 114.844 43.1916 114.794 43.3335C114.724 43.5328 114.627 43.8086 114.491 44.1368C114.319 44.5532 113.751 45.3976 113.286 46.0514L113.313 46.0736C111.623 48.3678 109.22 49.9522 106.533 50.5443C103.845 51.1364 101.048 50.6978 98.6384 49.3067C96.2292 47.9155 94.365 45.6623 93.3781 42.9485C92.3912 40.2346 92.3457 37.2366 93.2498 34.4888C94.1538 31.741 95.9486 29.4218 98.3143 27.9448C100.68 26.4677 103.463 25.9287 106.167 26.4237C108.871 26.9188 111.32 28.4159 113.079 30.648Z" fill="#665BE3"/>
<path d="M115.768 38.6117L115.766 38.8617L116.016 38.8636L116.018 38.6136L115.768 38.6117ZM113.079 30.648L112.882 30.8027L113.079 30.648ZM115.72 38.6113L115.722 38.3613L115.474 38.3594L115.47 38.6075L115.72 38.6113ZM115.667 39.315L115.665 39.5649L115.879 39.5666L115.914 39.3557L115.667 39.315ZM100.003 39.195L100.005 38.945L99.7887 38.9433L99.756 39.1572L100.003 39.195ZM102.348 42.9367L102.253 43.168L102.298 43.1864L102.346 43.1867L102.348 42.9367ZM114.908 43.0329L115.133 43.1413L115.304 42.786L114.909 42.7829L114.908 43.0329ZM114.794 43.3335L114.559 43.2502L114.559 43.2502L114.794 43.3335ZM114.491 44.1368L114.26 44.0414L114.491 44.1368ZM113.286 46.0514L113.082 45.9065L112.948 46.0959L113.127 46.244L113.286 46.0514ZM113.313 46.0736L113.514 46.2219L113.654 46.0316L113.472 45.881L113.313 46.0736ZM106.533 50.5443L106.587 50.7884L106.533 50.5443ZM98.6384 49.3067L98.5134 49.5232L98.5134 49.5232L98.6384 49.3067ZM93.3781 42.9485L93.6131 42.863L93.3781 42.9485ZM93.2498 34.4888L93.4872 34.5669L93.2498 34.4888ZM98.3143 27.9448L98.4467 28.1568L98.4467 28.1568L98.3143 27.9448ZM106.167 26.4237L106.212 26.1778L106.212 26.1778L106.167 26.4237ZM116.018 38.6136C116.04 35.649 115.07 32.7712 113.275 30.4933L112.882 30.8027C114.605 32.9891 115.54 35.7558 115.518 38.6098L116.018 38.6136ZM115.718 38.8613L115.766 38.8617L115.77 38.3617L115.722 38.3613L115.718 38.8613ZM115.47 38.6075C115.466 38.877 115.449 39.1044 115.42 39.2742L115.914 39.3557C115.947 39.1524 115.965 38.8981 115.97 38.6151L115.47 38.6075ZM115.669 39.065L100.005 38.945L100.001 39.445L115.665 39.5649L115.669 39.065ZM99.756 39.1572C99.5833 40.2868 99.9724 41.1974 100.519 41.867C101.061 42.5311 101.763 42.9667 102.253 43.168L102.443 42.7055C102.018 42.5307 101.388 42.1409 100.906 41.5509C100.429 40.9663 100.103 40.1941 100.25 39.2328L99.756 39.1572ZM102.346 43.1867L114.906 43.2829L114.909 42.7829L102.35 42.6868L102.346 43.1867ZM114.682 42.9246C114.648 42.9959 114.606 43.1164 114.559 43.2502L115.03 43.4167C115.083 43.2668 115.114 43.1812 115.133 43.1413L114.682 42.9246ZM114.559 43.2502C114.488 43.4492 114.393 43.7197 114.26 44.0414L114.722 44.2323C114.86 43.8976 114.96 43.6164 115.03 43.4167L114.559 43.2502ZM114.26 44.0414C114.183 44.2263 114.01 44.5244 113.788 44.8699C113.569 45.2103 113.313 45.5814 113.082 45.9065L113.49 46.1962C113.723 45.8676 113.984 45.4896 114.209 45.1402C114.43 44.796 114.626 44.4637 114.722 44.2323L114.26 44.0414ZM113.472 45.881L113.445 45.8587L113.127 46.244L113.153 46.2662L113.472 45.881ZM106.587 50.7884C109.336 50.1828 111.79 48.563 113.514 46.2219L113.111 45.9253C111.456 48.1727 109.105 49.7215 106.479 50.3001L106.587 50.7884ZM98.5134 49.5232C100.976 50.9451 103.837 51.3941 106.587 50.7884L106.479 50.3001C103.853 50.8787 101.119 50.4505 98.7634 49.0902L98.5134 49.5232ZM93.1432 43.0339C94.1493 45.8007 96.0512 48.1015 98.5134 49.5232L98.7634 49.0902C96.4072 47.7296 94.5807 45.5239 93.6131 42.863L93.1432 43.0339ZM93.0123 34.4107C92.0908 37.2117 92.1371 40.2673 93.1432 43.0339L93.6131 42.863C92.6454 40.202 92.6007 37.2616 93.4872 34.5669L93.0123 34.4107ZM98.1819 27.7327C95.7646 29.242 93.9339 31.6095 93.0123 34.4107L93.4872 34.5669C94.3737 31.8724 96.1326 29.6017 98.4467 28.1568L98.1819 27.7327ZM106.212 26.1778C103.446 25.6713 100.6 26.2232 98.1819 27.7327L98.4467 28.1568C100.76 26.7122 103.48 26.186 106.122 26.6697L106.212 26.1778ZM113.275 30.4933C111.481 28.2151 108.978 26.6843 106.212 26.1778L106.122 26.6697C108.764 27.1534 111.16 28.6166 112.882 30.8027L113.275 30.4933Z" fill="#665BE3"/>
<path d="M124.539 31.1648L124.388 50.8005L119.096 50.76L119.246 31.1242L124.539 31.1648ZM134.139 51.1437C132.567 51.1317 131.214 50.8209 130.081 50.2113C128.954 49.5954 128.089 48.7194 127.484 47.5834C126.885 46.441 126.592 45.0772 126.604 43.492C126.616 41.9708 126.933 40.6436 127.555 39.5105C128.177 38.3775 129.05 37.4989 130.174 36.8746C131.297 36.2504 132.619 35.9441 134.141 35.9558C135.253 35.9643 136.258 36.1446 137.157 36.4966C138.055 36.8487 138.822 37.3564 139.456 38.0196C140.09 38.6765 140.576 39.4728 140.914 40.4087C141.252 41.3446 141.417 42.3973 141.408 43.567L141.398 44.7943L128.244 44.6935L128.266 41.7788L136.55 41.8423C136.547 41.4204 136.441 41.0488 136.233 40.7276C136.031 40.4001 135.755 40.1454 135.404 39.9638C135.061 39.7758 134.668 39.6801 134.227 39.6767C133.799 39.6734 133.405 39.7631 133.046 39.9457C132.686 40.122 132.397 40.369 132.177 40.687C131.964 41.0049 131.849 41.378 131.833 41.8062L131.809 44.951C131.805 45.424 131.901 45.8466 132.096 46.2188C132.292 46.5911 132.574 46.8841 132.943 47.0978C133.312 47.3116 133.759 47.4205 134.283 47.4245C134.647 47.4273 134.98 47.3787 135.281 47.2788C135.589 47.1788 135.852 47.0338 136.071 46.8437C136.29 46.6473 136.451 46.412 136.556 46.1379L141.388 46.1749C141.214 47.1963 140.814 48.0818 140.188 48.8313C139.562 49.5744 138.737 50.1498 137.711 50.5574C136.691 50.9587 135.501 51.1541 134.139 51.1437ZM150.604 51.2698C149.006 51.2576 147.641 50.9307 146.508 50.2892C145.375 49.6413 144.509 48.7461 143.911 47.6037C143.312 46.4549 143.019 45.1263 143.03 43.6178C143.042 42.1093 143.356 40.7886 143.972 39.6555C144.588 38.516 145.467 37.6342 146.609 37.0101C147.752 36.3796 149.122 36.0705 150.72 36.0827C152.165 36.0938 153.412 36.3655 154.463 36.8977C155.52 37.4235 156.336 38.1649 156.91 39.1217C157.485 40.0722 157.77 41.1866 157.767 42.465L152.858 42.4274C152.793 41.6535 152.574 41.0637 152.2 40.6581C151.833 40.2462 151.355 40.038 150.767 40.0335C150.307 40.03 149.903 40.1611 149.556 40.4269C149.208 40.6864 148.937 41.0838 148.741 41.6192C148.545 42.1483 148.444 42.8155 148.438 43.6209C148.432 44.4263 148.523 45.0981 148.71 45.6365C148.898 46.1685 149.163 46.5701 149.506 46.8412C149.85 47.1059 150.251 47.24 150.712 47.2435C151.101 47.2465 151.447 47.1597 151.749 46.983C152.051 46.7999 152.296 46.5333 152.484 46.1832C152.678 45.8267 152.797 45.393 152.839 44.8819L157.748 44.9195C157.719 46.2169 157.413 47.346 156.83 48.3068C156.248 49.2611 155.427 49.9963 154.368 50.5124C153.316 51.0285 152.061 51.281 150.604 51.2698ZM168.78 36.4128L168.75 40.248L159.048 40.1736L159.077 36.3385L168.78 36.4128ZM160.983 32.8246L166.276 32.8651L166.172 46.3839C166.171 46.5885 166.204 46.7613 166.274 46.9025C166.343 47.0372 166.451 47.1403 166.597 47.2118C166.744 47.2768 166.932 47.3102 167.162 47.312C167.322 47.3132 167.508 47.2955 167.719 47.2587C167.936 47.222 168.096 47.1913 168.199 47.1665L168.937 50.8925C168.7 50.9609 168.361 51.0446 167.919 51.1435C167.484 51.2425 166.965 51.3056 166.364 51.333C165.149 51.3876 164.131 51.2552 163.309 50.9356C162.487 50.6097 161.87 50.1032 161.46 49.4161C161.05 48.729 160.855 47.8709 160.876 46.842L160.983 32.8246ZM170.827 51.1562L170.939 36.4294L176.079 36.4687L176.057 39.2684L176.211 39.2695C176.487 38.2361 176.918 37.4819 177.503 37.007C178.095 36.5321 178.784 36.2977 179.57 36.3037C179.8 36.3055 180.027 36.3264 180.25 36.3665C180.48 36.4002 180.7 36.4498 180.911 36.5153L180.876 41.0312C180.615 40.9397 180.292 40.8701 179.909 40.8224C179.526 40.7747 179.197 40.7498 178.922 40.7477C178.405 40.7438 177.937 40.8585 177.52 41.0918C177.109 41.3187 176.784 41.6423 176.544 42.0623C176.304 42.476 176.182 42.964 176.178 43.5265L176.119 51.1968L170.827 51.1562ZM188.783 51.5622C187.185 51.55 185.819 51.2231 184.686 50.5816C183.553 49.9337 182.688 49.0385 182.089 47.8961C181.491 46.7474 181.197 45.4187 181.209 43.9102C181.22 42.4018 181.534 41.081 182.15 39.9479C182.766 38.8084 183.645 37.9266 184.788 37.3025C185.931 36.672 187.301 36.3629 188.899 36.3752C190.497 36.3874 191.862 36.7175 192.995 37.3654C194.128 38.0069 194.994 38.902 195.592 40.0508C196.191 41.1932 196.484 42.5187 196.473 44.0271C196.461 45.5356 196.147 46.8596 195.531 47.9991C194.915 49.1322 194.036 50.014 192.893 50.6445C191.751 51.2685 190.381 51.5745 188.783 51.5622ZM188.851 47.6507C189.298 47.6541 189.686 47.5069 190.014 47.209C190.343 46.911 190.599 46.4847 190.782 45.93C190.965 45.3753 191.06 44.7144 191.065 43.9474C191.071 43.174 190.987 42.5117 190.812 41.9606C190.637 41.4032 190.388 40.973 190.065 40.6701C189.741 40.3672 189.355 40.214 188.908 40.2106C188.435 40.2069 188.028 40.354 187.687 40.6519C187.346 40.9497 187.084 41.376 186.9 41.9307C186.717 42.479 186.623 43.1399 186.617 43.9133C186.611 44.6803 186.695 45.3426 186.87 45.9C187.045 46.4575 187.3 46.8877 187.637 47.1907C187.973 47.4938 188.378 47.6471 188.851 47.6507ZM203.92 43.1253L203.857 51.4092L198.564 51.3687L198.677 36.6418L203.701 36.6803L203.68 39.4799L203.833 39.4811C204.16 38.5503 204.728 37.8228 205.537 37.2984C206.353 36.7741 207.301 36.5161 208.381 36.5244C209.423 36.5324 210.326 36.779 211.089 37.2642C211.859 37.7432 212.452 38.3997 212.867 39.2339C213.289 40.0681 213.493 41.0189 213.478 42.0863L213.406 51.4823L208.114 51.4418L208.177 43.158C208.189 42.4293 208.008 41.8558 207.634 41.4375C207.267 41.0192 206.75 40.8075 206.086 40.8024C205.651 40.799 205.27 40.892 204.943 41.0813C204.621 41.2642 204.373 41.5308 204.198 41.881C204.023 42.2248 203.93 42.6396 203.92 43.1253ZM216.019 51.5023L216.132 36.7755L221.424 36.816L221.311 51.5429L216.019 51.5023ZM218.79 35.2617C218.074 35.2562 217.462 35.015 216.954 34.5381C216.446 34.0612 216.195 33.4904 216.2 32.8256C216.205 32.1609 216.465 31.594 216.98 31.1249C217.495 30.6558 218.111 30.424 218.827 30.4295C219.549 30.435 220.161 30.6762 220.662 31.1531C221.17 31.63 221.421 32.2008 221.416 32.8656C221.411 33.5303 221.151 34.0972 220.636 34.5663C220.127 35.0355 219.512 35.2673 218.79 35.2617ZM231.101 51.8863C229.503 51.8741 228.137 51.5472 227.004 50.9057C225.872 50.2578 225.006 49.3627 224.407 48.2203C223.809 47.0715 223.515 45.7428 223.527 44.2344C223.538 42.7259 223.852 41.4051 224.468 40.272C225.084 39.1325 225.963 38.2507 227.106 37.6266C228.249 36.9962 229.619 36.687 231.217 36.6993C232.662 36.7103 233.909 36.982 234.96 37.5142C236.017 38.0401 236.833 38.7814 237.407 39.7383C237.981 40.6887 238.267 41.8031 238.263 43.0816L233.355 43.044C233.29 42.27 233.071 41.6802 232.697 41.2747C232.329 40.8628 231.851 40.6545 231.263 40.65C230.803 40.6465 230.4 40.7777 230.052 41.0435C229.705 41.3029 229.434 41.7003 229.238 42.2358C229.042 42.7648 228.941 43.432 228.935 44.2374C228.929 45.0428 229.019 45.7147 229.207 46.2531C229.395 46.7851 229.66 47.1866 230.003 47.4577C230.346 47.7224 230.748 47.8565 231.208 47.8601C231.598 47.863 231.944 47.7762 232.246 47.5995C232.548 47.4165 232.793 47.1499 232.981 46.7997C233.175 46.4433 233.293 46.0095 233.336 45.4984L238.245 45.536C238.216 46.8334 237.91 47.9625 237.327 48.9233C236.744 49.8777 235.924 50.6129 234.865 51.1289C233.813 51.645 232.558 51.8975 231.101 51.8863Z" fill="#665BE3"/>
<path d="M102.239 65.4811C101.225 65.4733 100.392 65.2483 99.7396 64.8059C99.0923 64.3636 98.697 63.7526 98.5536 62.9728L99.7551 62.782C99.8793 63.2736 100.167 63.6678 100.618 63.9646C101.075 64.2561 101.639 64.4044 102.311 64.4096C102.967 64.4146 103.485 64.2826 103.866 64.0135C104.247 63.7391 104.439 63.3645 104.442 62.8899C104.444 62.6232 104.385 62.4068 104.263 62.2405C104.147 62.0689 103.906 61.9097 103.539 61.7629C103.172 61.6161 102.624 61.4412 101.895 61.2383C101.113 61.019 100.501 60.801 100.06 60.5842C99.6189 60.3675 99.3061 60.1198 99.1216 59.841C98.9371 59.5569 98.8464 59.2122 98.8495 58.8069C98.8533 58.3163 98.9952 57.888 99.2754 57.5221C99.5556 57.1509 99.9418 56.8659 100.434 56.667C100.926 56.4628 101.498 56.3631 102.148 56.3681C102.799 56.3731 103.379 56.4842 103.89 56.7015C104.406 56.9134 104.819 57.2099 105.131 57.591C105.443 57.9721 105.626 58.4135 105.681 58.9152L104.479 59.122C104.403 58.6148 104.153 58.2129 103.728 57.9163C103.309 57.6144 102.775 57.4556 102.124 57.44C101.511 57.4193 101.011 57.5328 100.625 57.7805C100.24 58.0229 100.045 58.3494 100.042 58.7601C100.04 58.9894 100.108 59.1872 100.245 59.3536C100.383 59.5147 100.632 59.6686 100.994 59.8154C101.361 59.9622 101.882 60.1235 102.558 60.2994C103.351 60.5081 103.974 60.7262 104.425 60.9537C104.877 61.1812 105.197 61.4476 105.387 61.7531C105.577 62.0585 105.67 62.4353 105.667 62.8833C105.66 63.6992 105.351 64.3395 104.74 64.8042C104.134 65.2636 103.3 65.4892 102.239 65.4811ZM111.004 65.5562C110.135 65.5496 109.401 65.3493 108.801 64.9553C108.201 64.5614 107.747 64.0219 107.437 63.3368C107.133 62.6465 106.979 61.8559 106.975 60.9652C106.993 60.0587 107.165 59.2653 107.49 58.5851C107.815 57.8996 108.28 57.3698 108.886 56.9957C109.492 56.6164 110.224 56.43 111.082 56.4365C111.957 56.4432 112.715 56.6624 113.357 57.094C114.005 57.5256 114.446 58.113 114.68 58.8562L113.525 59.2153C113.326 58.6965 113.007 58.294 112.566 58.008C112.131 57.7166 111.631 57.5688 111.066 57.5644C110.431 57.5596 109.905 57.7022 109.486 57.9924C109.068 58.2772 108.756 58.6775 108.549 59.1932C108.342 59.709 108.234 60.3028 108.223 60.9748C108.226 62.0095 108.46 62.8433 108.924 63.4762C109.389 64.1038 110.085 64.4211 111.013 64.4282C111.6 64.4327 112.099 64.3032 112.512 64.0397C112.93 63.7709 113.248 63.3787 113.465 62.863L114.646 63.224C114.321 63.9896 113.847 64.5726 113.225 64.9732C112.603 65.3685 111.863 65.5628 111.004 65.5562ZM122.521 65.4044L122.555 60.9965C122.559 60.5166 122.517 60.0762 122.429 59.6755C122.342 59.2695 122.198 58.9164 121.997 58.6162C121.802 58.3107 121.545 58.0741 121.227 57.9063C120.913 57.7385 120.53 57.6529 120.077 57.6495C119.661 57.6463 119.292 57.7155 118.971 57.857C118.655 57.9986 118.387 58.2045 118.166 58.4749C117.951 58.7399 117.786 59.064 117.671 59.4471C117.556 59.8302 117.497 60.2671 117.493 60.7578L116.662 60.5674C116.669 59.6821 116.829 58.9393 117.143 58.339C117.457 57.7387 117.887 57.286 118.434 56.9809C118.98 56.6757 119.605 56.5258 120.309 56.5312C120.827 56.5352 121.277 56.6186 121.659 56.7816C122.047 56.9445 122.374 57.163 122.638 57.4371C122.908 57.7112 123.125 58.0248 123.287 58.3781C123.45 58.726 123.567 59.0976 123.639 59.4928C123.71 59.8827 123.745 60.2723 123.742 60.6616L123.705 65.4135L122.521 65.4044ZM116.273 65.3566L116.362 53.8369L117.426 53.845L117.376 60.3489L117.496 60.3498L117.457 65.3656L116.273 65.3566ZM129.387 65.697C128.529 65.6904 127.797 65.4902 127.192 65.0962C126.587 64.7022 126.124 64.16 125.804 63.4695C125.484 62.779 125.328 61.9885 125.334 61.0978C125.341 60.1912 125.513 59.3978 125.849 58.7177C126.185 58.0376 126.658 57.5105 127.269 57.1365C127.885 56.7572 128.614 56.5708 129.457 56.5773C130.321 56.5839 131.056 56.7842 131.661 57.1782C132.271 57.5669 132.734 58.1064 133.048 58.7968C133.368 59.482 133.525 60.2699 133.518 61.1605C133.511 62.0672 133.342 62.8632 133.012 63.5487C132.681 64.2289 132.208 64.7586 131.592 65.1379C130.975 65.5172 130.241 65.7035 129.387 65.697ZM129.396 64.569C130.356 64.5764 131.073 64.2645 131.547 63.6335C132.021 62.9971 132.262 62.1696 132.27 61.151C132.278 60.1057 132.047 59.2719 131.577 58.6496C131.113 58.0273 130.403 57.7126 129.448 57.7052C128.803 57.7003 128.269 57.8429 127.845 58.133C127.427 58.4178 127.112 58.818 126.9 59.3338C126.693 59.8442 126.587 60.4354 126.582 61.1074C126.574 62.1474 126.808 62.9838 127.283 63.6168C127.758 64.2445 128.463 64.5619 129.396 64.569ZM138.856 65.7695C137.997 65.763 137.265 65.5627 136.66 65.1687C136.055 64.7747 135.593 64.2325 135.273 63.542C134.953 62.8515 134.796 62.061 134.803 61.1704C134.81 60.2637 134.981 59.4703 135.317 58.7902C135.653 58.1101 136.126 57.583 136.737 57.2091C137.354 56.8298 138.083 56.6433 138.926 56.6498C139.79 56.6564 140.524 56.8567 141.129 57.2507C141.739 57.6394 142.202 58.1789 142.517 58.8694C142.837 59.5545 142.993 60.3424 142.987 61.233C142.98 62.1397 142.811 62.9357 142.48 63.6212C142.15 64.3014 141.676 64.8311 141.06 65.2104C140.444 65.5897 139.709 65.7761 138.856 65.7695ZM138.864 64.6416C139.824 64.6489 140.541 64.3371 141.016 63.706C141.49 63.0696 141.731 62.2421 141.739 61.2235C141.747 60.1782 141.516 59.3444 141.046 58.7221C140.581 58.0999 139.872 57.7851 138.917 57.7778C138.272 57.7728 137.737 57.9154 137.314 58.2055C136.895 58.4903 136.58 58.8906 136.368 59.4063C136.162 59.9167 136.056 60.5079 136.051 61.1799C136.043 62.2199 136.276 63.0564 136.752 63.6894C137.227 64.317 137.931 64.6344 138.864 64.6416ZM144.878 65.5756L144.968 53.816L146.144 53.825L146.054 65.5847L144.878 65.5756Z" fill="#665BE3"/>
<defs>
<filter id="filter0_i_0_1" x="15.6907" y="0.859375" width="74.2258" height="76.4849" filterUnits="userSpaceOnUse" color-interpolation-filters="sRGB">
<feFlood flood-opacity="0" result="BackgroundImageFix"/>
<feBlend mode="normal" in="SourceGraphic" in2="BackgroundImageFix" result="shape"/>
<feColorMatrix in="SourceAlpha" type="matrix" values="0 0 0 0 0 0 0 0 0 0 0 0 0 0 0 0 0 0 127 0" result="hardAlpha"/>
<feOffset dx="4" dy="4"/>
<feGaussianBlur stdDeviation="11"/>
<feComposite in2="hardAlpha" operator="arithmetic" k2="-1" k3="1"/>
<feColorMatrix type="matrix" values="0 0 0 0 0 0 0 0 0 0 0 0 0 0 0 0 0 0 0.25 0"/>
<feBlend mode="normal" in2="shape" result="effect1_innerShadow_0_1"/>
</filter>
<filter id="filter1_i_0_1" x="0.805176" y="27.561" width="7.15161" height="7.09619" filterUnits="userSpaceOnUse" color-interpolation-filters="sRGB">
<feFlood flood-opacity="0" result="BackgroundImageFix"/>
<feBlend mode="normal" in="SourceGraphic" in2="BackgroundImageFix" result="shape"/>
<feColorMatrix in="SourceAlpha" type="matrix" values="0 0 0 0 0 0 0 0 0 0 0 0 0 0 0 0 0 0 127 0" result="hardAlpha"/>
<feOffset dx="1" dy="1"/>
<feGaussianBlur stdDeviation="1.5"/>
<feComposite in2="hardAlpha" operator="arithmetic" k2="-1" k3="1"/>
<feColorMatrix type="matrix" values="0 0 0 0 0 0 0 0 0 0 0 0 0 0 0 0 0 0 0.25 0"/>
<feBlend mode="normal" in2="shape" result="effect1_innerShadow_0_1"/>
</filter>
<filter id="filter2_i_0_1" x="5.97485" y="12.2549" width="12.3076" height="12.4014" filterUnits="userSpaceOnUse" color-interpolation-filters="sRGB">
<feFlood flood-opacity="0" result="BackgroundImageFix"/>
<feBlend mode="normal" in="SourceGraphic" in2="BackgroundImageFix" result="shape"/>
<feColorMatrix in="SourceAlpha" type="matrix" values="0 0 0 0 0 0 0 0 0 0 0 0 0 0 0 0 0 0 127 0" result="hardAlpha"/>
<feOffset dx="1" dy="1"/>
<feGaussianBlur stdDeviation="2"/>
<feComposite in2="hardAlpha" operator="arithmetic" k2="-1" k3="1"/>
<feColorMatrix type="matrix" values="0 0 0 0 0 0 0 0 0 0 0 0 0 0 0 0 0 0 0.25 0"/>
<feBlend mode="normal" in2="shape" result="effect1_innerShadow_0_1"/>
</filter>
</defs>
</svg>
