<svg width="92" height="77" viewBox="0 0 92 77" fill="none" xmlns="http://www.w3.org/2000/svg">
<path d="M61.8896 41.7555L71.8659 46.3991L81.0079 38.8896L91.8186 15.2729L87.5378 13.7492C89.1099 11.2098 91.3107 5.52145 87.5378 3.0836C82.8217 0.0362776 77.3801 0 73.2444 0C69.1088 0 63.6672 3.48265 61.8896 6.13092C60.112 8.77918 57.1735 10.2303 55.3959 22.7461C53.9738 32.7587 59.1325 39.591 61.8896 41.7555Z" fill="#D9D9D9"/>
<path d="M87.2839 16.7963L86.0505 12.5881C84.6115 12.1407 81.6246 11.2749 81.1893 11.391C80.754 11.5071 79.4843 14.0513 78.9038 15.309L83.8376 18.7553L87.2839 16.7963Z" fill="#C9C9C9"/>
<path d="M54.2351 37.4746L64.6105 42.2633L42.4812 58.8784V44.5125L54.2351 37.4746Z" fill="#C9C9C9"/>
<path d="M10.9559 9.79492L0.036377 15.0915L9.64994 61.7807L14.4749 59.0599L17.1594 65.9889L24.9954 60.6924L32.9764 76.1467L64.5742 53.6908V42.2634L45.2383 54.9968V26.9905L34.2462 21.7303L24.1973 28.4053L20.3156 14.112L10.9559 9.79492Z" fill="#B0B0B0"/>
<path d="M45.2382 26.9905L33.0126 35.153L23.0726 29.1309L34.2461 21.694L45.2382 26.9905Z" fill="#C9C9C9"/>
<path d="M20.3517 14.112L9.68612 20.9684L0 15.1277L10.8833 9.79492L20.3517 14.112Z" fill="#C9C9C9"/>
<path d="M0.036377 15.1279L9.68622 20.9686V61.9986L0.036377 55.8314V15.1279Z" fill="#D9D9D9"/>
<path d="M23.3264 29.2759L32.9763 35.1166V76.1465L23.3264 69.9794V29.2759Z" fill="#D9D9D9"/>
<path d="M15.5269 51.2238L9.6499 21.0771V47.85L12.8786 63.1592L17.0868 66.0977L23.4354 51.2238V29.6024L15.5269 51.2238Z" fill="#D9D9D9"/>
<path d="M65.6323 32.8577C65.8644 49.6615 74.75 47.5502 79.1638 44.394C84.2064 41.6007 87.1449 35.506 88.9951 31.0076C90.4752 27.4088 91.5466 18.9634 91.8973 15.1905L81.9572 23.5707V28.323L85.5487 25.2757C85.2826 26.9203 84.1919 30.7391 81.9572 32.8577C79.1638 35.506 76.5156 35.7599 76.1165 28.323C75.7175 20.8861 79.9619 14.5375 82.9004 12.7962C85.2512 11.4032 85.6454 14.8761 85.5487 16.7868L91.8973 11.454C91.8973 10.0029 91.5563 6.64355 90.1922 4.81516C88.4872 2.52967 82.7553 1.25995 79.1638 3.618C75.5723 5.97604 65.3421 11.853 65.6323 32.8577Z" fill="#AFAFAF"/>
<path d="M76.9812 21.6938L81.9512 23.6165L92.0001 15.0913L88.6626 14.1118L85.6515 16.8689L80.4276 15.0913C78.8604 16.9487 77.477 20.2669 76.9812 21.6938Z" fill="#D9D9D9"/>
<path d="M76.1468 25.7935L82.0963 28.1878L85.4339 25.1768C85.4822 25.3823 85.4484 26.2723 84.926 28.1878C84.273 30.5821 80.9717 34.754 78.3234 34.5001C76.2048 34.2969 75.9896 28.611 76.1468 25.7935Z" fill="#C9C9C9"/>
</svg>
